<?xml version="1.0" encoding="iso-8859-1"?>
<!-- Uploaded to: SVG Repo, www.svgrepo.com, Generator: SVG Repo Mixer Tools -->
<!DOCTYPE svg PUBLIC "-//W3C//DTD SVG 1.1//EN" "http://www.w3.org/Graphics/SVG/1.1/DTD/svg11.dtd">
<svg fill="#000000" height="800px" width="800px" version="1.1" id="Capa_1" xmlns="http://www.w3.org/2000/svg" xmlns:xlink="http://www.w3.org/1999/xlink" 
	 viewBox="0 0 492.981 492.981" xml:space="preserve">
<g>
	<path d="M126.266,40.576c-1.35,4.442-1.543,9.054-0.53,13.568c3.35,14.926,18.702,24.237,34.191,20.758
		c5.431-1.221,10.251-3.944,14.083-7.865l17.746,16.22c1.181,1.085,2.675,1.615,4.162,1.615c1.671,0,3.334-0.675,4.555-2.008
		c2.298-2.515,2.121-6.419-0.394-8.716l-22.719-20.759c-1.39-1.261-3.286-1.839-5.109-1.542c-1.848,0.289-3.47,1.398-4.402,3.021
		c-2.386,4.153-6.161,6.989-10.628,8.001c-8.837,2-17.578-3.125-19.449-11.432c-0.924-4.129,0.233-7.672,1.357-9.913
		c1.39-2.764,0.514-6.129-2.04-7.873c-2.523-1.719-4.282-4.306-4.957-7.302c-0.691-3.077-0.201-6.218,1.39-8.845
		c1.543-2.539,3.936-4.29,6.756-4.925c4.539-1.044,9.271,1.302,11.777,5.776c0.915,1.639,2.522,2.763,4.37,3.077
		c1.807,0.289,3.728-0.257,5.133-1.494c2.281-2.049,4.948-3.431,7.913-4.106c4.29-0.996,8.644-0.377,12.267,1.671
		c3.414,1.936,5.728,4.957,6.531,8.515c1.157,5.158-1.124,10.58-5.969,14.155c-1.711,1.261-2.651,3.318-2.49,5.431
		c0.161,2.121,1.406,4.009,3.286,4.997l23.434,12.308c3.021,1.599,6.764,0.426,8.331-2.595c1.583-3.013,0.426-6.748-2.595-8.331
		l-16.171-8.491c4.145-5.945,5.776-13.232,4.209-20.18c-1.567-6.997-6.001-12.87-12.476-16.541
		c-6.282-3.567-13.793-4.619-21.08-2.972c-2.812,0.634-5.519,1.679-8.025,3.084c-5.559-5.583-13.48-8.073-21.152-6.338
		c-6.122,1.374-11.311,5.126-14.605,10.572c-3.245,5.366-4.266,11.737-2.868,17.938C121.077,33.434,123.214,37.394,126.266,40.576z"
		/>
	<path d="M282.084,43.234l-6.242,13.914c-0.932,2.073-0.008,4.507,2.064,5.439c2.081,0.939,4.515,0.008,5.439-2.065l8.074-17.987
		c0.514-1.141,0.482-2.442-0.088-3.559c-0.562-1.108-1.607-1.896-2.82-2.153c-2.965-0.619-5.423-2.33-6.909-4.804
		c-2.932-4.917-1.583-11.15,3.004-13.897c1.816-1.093,3.929-1.479,6.21-1.149c2.089,0.337,4-0.948,4.563-2.948
		c0.514-1.824,1.711-3.374,3.366-4.37c3.439-2.049,7.841-1.109,9.801,2.144c1.495,2.498,1.029,5.76-1.148,8.122
		c-0.844,0.924-1.229,2.177-1.036,3.414c0.192,1.237,0.932,2.322,2.017,2.94c1.679,0.964,3.044,2.297,4.041,3.944
		c1.502,2.515,1.983,5.479,1.317,8.13c-0.554,2.209-1.872,4.033-3.711,5.133c-2.82,1.719-6.507,1.406-9.624-0.795
		c-1.165-0.819-2.643-0.964-3.961-0.441c-1.309,0.546-2.241,1.727-2.474,3.125l-2.788,16.733c-0.377,2.242,1.141,4.362,3.382,4.732
		c0.226,0.04,0.458,0.056,0.683,0.056c1.968,0,3.711-1.422,4.049-3.438l1.896-11.367c4.475,1.309,9.174,0.787,13.071-1.55
		c3.719-2.217,6.371-5.84,7.455-10.187c1.197-4.756,0.378-9.986-2.249-14.372c-0.94-1.559-2.097-2.98-3.431-4.209
		c2.266-4.523,2.185-9.825-0.434-14.195c-4.273-7.142-13.713-9.367-21.08-4.973c-2.474,1.478-4.458,3.567-5.792,6.041
		c-2.956,0.088-5.792,0.9-8.339,2.418c-8.483,5.077-11.11,16.372-5.84,25.185C276.372,39.282,278.967,41.676,282.084,43.234z"/>
	<path d="M347.573,44.239c-2.274,0-4.113,1.839-4.113,4.113c0,2.273,1.839,4.113,4.113,4.113c18.421,0,33.411,14.991,33.411,33.412
		c0,2.273,1.839,4.113,4.113,4.113c2.273,0,4.113-1.839,4.113-4.113C389.21,62.917,370.533,44.239,347.573,44.239z"/>
	<path d="M364.025,27.786c-2.273,0-4.113,1.84-4.113,4.113c0,2.273,1.84,4.113,4.113,4.113c18.421,0,33.412,14.991,33.412,33.412
		c0,2.273,1.839,4.113,4.113,4.113c2.273,0,4.113-1.84,4.113-4.113C405.663,46.464,386.985,27.786,364.025,27.786z"/>
	<path d="M132.773,103.614c2.024-1.028,2.836-3.503,1.8-5.527c-1.013-2.017-3.494-2.812-5.527-1.8
		c-19.095,9.696-26.743,33.13-17.047,52.242c0.731,1.43,2.177,2.249,3.671,2.249c0.627,0,1.262-0.145,1.864-0.442
		c2.024-1.028,2.836-3.511,1.808-5.535C111.694,129.739,117.719,111.262,132.773,103.614z"/>
	<path d="M112.288,96.93c2.024-1.028,2.836-3.502,1.8-5.527c-1.021-2.017-3.511-2.811-5.527-1.799
		c-19.096,9.704-26.735,33.146-17.031,52.25c0.723,1.43,2.168,2.249,3.664,2.249c0.626,0,1.269-0.145,1.863-0.45
		c2.024-1.028,2.836-3.502,1.8-5.527C91.208,123.071,97.233,104.586,112.288,96.93z"/>
	<path d="M356.273,85.523c-5.182-12.613-19.578-18.63-32.198-13.48C313,76.585,307.011,88.249,309.209,99.565
		c-10.595,2.25-20.796,0.835-27.887-1.137c-8.561-6.999-19.352-11.372-31.268-11.372c-17.749,0-33.215,9.391-41.998,23.401
		c-7.368,4.778-14.194,6.35-19.628,6.377c-3.08-5.139-7.966-9.214-14.169-11.028c-13.103-3.88-26.784,3.68-30.616,16.75
		L127.6,177.394c-3.502,11.906-2.073,24.977,3.904,35.837c5.961,10.87,16.22,19.08,28.15,22.534l35.507,10.246l-7.738,73.998
		l-29.078,9.548c-11.817,3.88-19.811,14.91-19.811,27.354v107.279c0,15.898,12.894,28.792,28.792,28.792
		c15.898,0,28.792-12.893,28.792-28.792v-86.432l49.077-16.107c3.181-1.06,6.547-1.052,9.712-0.008l49.093,16.123v86.424
		c0,15.898,12.894,28.792,28.791,28.792c15.898,0,28.792-12.893,28.792-28.792V356.91c0-12.444-7.993-23.474-19.811-27.354
		l-29.086-9.552l-7.864-75.192l60.247-45.519c16.998-12.846,23.232-35.588,15.159-55.311L356.273,85.523z M229.513,160.78
		c11.327-11.327,29.756-11.327,41.083,0c2.41,2.41,2.41,6.314,0,8.725c-1.205,1.205-2.779,1.808-4.362,1.808
		c-1.582,0-3.157-0.603-4.362-1.808c-6.523-6.507-17.111-6.507-23.635,0c-2.41,2.41-6.314,2.41-8.725,0
		C227.102,167.095,227.102,163.19,229.513,160.78z M283.798,198.835h-74.08l-34.086-9.833l15.376-52.579
		c0.369-1.257,0.542-2.518,0.705-3.778c3.271,1.738,6.267,3.653,8.84,5.769c0.91,26.627,22.653,47.985,49.501,47.985
		c27.426,0,49.672-22.246,49.672-49.671c0-2.717-0.381-5.334-0.801-7.933c4.568-6.58,9.981-12.466,14.781-16.962l20.154,49.181
		L283.798,198.835z"/>
</g>
</svg>