<svg xmlns="http://www.w3.org/2000/svg" width="512" height="512" viewBox="0 0 512 512" style="overflow: visible;" data-bbox="78.768 74.616 354.463 362.767"><rect data-uid="o_fc2hacb8j_6" data-fl-background="" x="0" y="0" width="512" height="512" fill="#cfbdda"></rect><g transform="matrix(1.1467414371799132, 0, 0, 1.1467414371799132, 58.52358671009107, 11.327209363922954)" data-uid="o_fc2hacb8j_7"><svg version="1.1" id="Calque_1" xmlns="http://www.w3.org/2000/svg" x="0px" y="0px" viewBox="0 0 360 360" enable-background="new 0 0 360 360" width="360" height="360" data-uid="o_fc2hacb8j_8"><path class="st0" d="M236.96 49.56c-0.08-0.06-0.17-0.1-0.26-0.15c-19.44-11.07-41.89-17.43-65.81-17.43
	c-73.56 0-133.41 59.85-133.41 133.41c0 72.19 57.64 131.13 129.31 133.31c0.52 0.28 1.17 0.3 1.73 0.04
	c0.79 0.01 1.57 0.06 2.37 0.06c73.56 0 133.41-59.85 133.41-133.41C304.29 115.85 277.14 72.57 236.96 49.56z M191.53 181.72
	c-2.19-12.71 3.63-24.4 15.08-30.49C206.23 163.19 199.96 173.58 191.53 181.72z M207.11 147.09c-5.86 1.56-11.97 3.38-17.94 2.1
	c-6.67-1.42-11.92-5.64-15.22-11.39c12.43-3.8 25.8-1.68 33.77 8.87C207.48 146.77 207.28 146.91 207.11 147.09z M228.65 156.91
	c2.9 3.96 4.08 8.78 4.96 13.56c-10.43-3.35-18.97-7.91-21.09-19.2C218.81 150.56 224.51 151.25 228.65 156.91z M212.07 146.7
	c-0.02-0.03-0.04-0.06-0.06-0.09c4.08-14.4 15.67-23.89 30.6-23.69C240.16 136.26 224.69 144.89 212.07 146.7z M203 87.66
	c1.76-3.41 3.59-6.97 4.18-10.8c0.6-3.92-0.7-6.95-1.07-10.73c-0.78-7.98 2.34-10.92 7.05-15.89c2.02-2.13 3.11-3.75 3.79-6.62
	c0.05-0.2 0.03-0.38 0.02-0.56c5.39 2.04 10.62 4.41 15.65 7.12c-10.61 3.86-13.65 11.94-15.05 23.25
	c-1.38 11.16-7.75 19.43-10.52 28.96C205.9 97.47 204.56 92.56 203 87.66z M40.15 165.38c0-72.08 58.64-130.73 130.73-130.73
	c15.05 0 29.5 2.59 42.97 7.29c-0.16 0.19-0.29 0.43-0.36 0.73c-1.55 6.65-9.63 8.77-11.35 15.44c-0.67 2.59-0.23 5 0.18 7.61
	c1.04 6.51 1.09 11.27-1.01 16.83c-1.67-4.78-3.54-9.55-5.63-14.29c-0.93-2.11-4.02-0.28-3.1 1.81c0.47 1.07 0.89 2.14 1.34 3.21
	c-2.34-0.3-4.76 0.06-7.15-0.92c-2.68-1.1-1.86-5.87-2.65-8.4c-0.81-2.58-2.21-4.79-4-6.79c-1.54-1.73-4.06 0.82-2.53 2.53
	c2.84 3.2 3.29 6.38 3.79 10.46c0.22 1.8 0.83 3.49 2.32 4.62c3.38 2.56 8.43 0.2 11.61 2.65c0.11 0.34 0.34 0.62 0.64 0.83
	c0.52 1.34 1 2.69 1.49 4.03c-5.87-1.13-12.57 3.15-18.85 0.14c-4.42-2.11-6.53-5.35-11.76-5.91c-3.44-0.37-6.23 0.51-9.35 1.85
	c-2.11 0.91-0.29 4 1.81 3.1c11.24-4.82 13.47 4.46 22.3 6.14c5.35 1.02 12.53-4.42 17.42-0.79c2.02 6.09 3.7 12.2 5.05 18.33
	c-0.44-0.34-0.91-0.65-1.43-0.92c-7.29-3.73-13.15 4.34-20.67-0.91c-4.66-3.26-6.2-7.47-12.56-8.11
	c-5.84-0.59-10.54 2.19-14.17 6.52c-1.48 1.75 1.05 4.3 2.53 2.53c6.6-7.85 15.36-4.22 21.66 1.59c1.53 1.41 2.62 2.64 4.7 3.28
	c3.1 0.97 3.8-0.32 6.73-0.41c4.26-2.16 8.63-1.59 13.11 1.71c1.15 2.29 1.89 4.7 2.22 7.22c0.05 0.24 0.14 0.42 0.24 0.59
	c1.15 7.9 1.78 15.8 1.91 23.68c-9.41-9.89-23.93-11.69-37.19-6.98c-0.17 0.06-0.29 0.16-0.43 0.26c-0.06 0.03-0.12 0.07-0.18 0.11
	c-0.03 0.02-0.05 0.04-0.08 0.06c-0.67 0.49-1.09 1.37-0.64 2.33c3.25 6.89 9 12.15 16.35 14.41c4.03 1.24 8.01 1.2 11.96 0.62
	c-8.89 7.91-12.63 19.95-9.59 32.25c0.09 0.37 0.28 0.62 0.5 0.83c0.54 0.89 1.83 1.42 2.85 0.52c6.61-5.84 12.2-12.94 15.43-20.99
	c-1.94 18.51-6.5 36.75-13.22 54.37c-0.28-0.77-0.59-1.51-0.97-2.23c0.06-0.08 0.14-0.13 0.2-0.23c4.91-8.57-0.29-18.73-9.56-20.1
	c1.66-2.6 3.17-5.22 4.51-7.76c0.39-0.74 0.22-1.45-0.19-1.95c-0.11-1.01-0.92-1.94-2.17-1.56c-4.57 1.39-8.85 3.34-12.86 5.69
	c2.61-4.96 4.13-10.44 5.18-16.01c1.39-1.22-0.26-3.78-2.16-2.81c-4.6 2.34-8.78 5.24-12.57 8.53c4.07-7.58 6.55-16.05 7.19-25.04
	c0.77-1.49-1.39-3.35-2.94-2.01c-4.53 3.94-8.53 8.28-12.11 12.92c3.1-6.94 5.21-14.32 5.77-22.26c0.07-0.94-0.5-1.47-1.19-1.64
	c-0.63-0.37-1.46-0.44-2.17 0.12c-4.16 3.3-7.78 7.05-10.94 11.1c1.89-7.16 2.55-14.71 1.85-22.42c-0.11-1.22-1.18-1.77-2.12-1.69
	c-0.54-0.17-1.13-0.09-1.63 0.48c-3.1 3.5-5.84 7.2-8.22 11.06c0.86-5.3 1.07-10.74 0.49-16.28c1.06-1.28-0.46-3.03-1.98-2.66
	c-0.76-0.03-1.47 0.36-1.62 1.16c-3.73 3.31-6.66 7.12-8.99 11.35c0.41-7.37-0.59-14.96-2.65-22.43c-0.08-0.3-0.22-0.53-0.4-0.72
	c-0.6-1.01-2.29-1.45-3.16-0.14c-3.97 5.94-6.99 12.24-9.15 18.79c-1.12-7.26-3.66-14.34-7.73-20.88c-0.56-0.9-1.51-0.98-2.27-0.64
	c-0.05 0.01-0.09 0.04-0.13 0.05c-0.02 0.01-0.05 0.02-0.07 0.03c-0.35 0.12-0.68 0.35-0.9 0.78c-2.91 5.47-4.67 11.25-5.36 17.08
	c-1.37-2.61-2.97-5.1-4.84-7.45c-0.45-0.56-1-0.67-1.51-0.54c-0.72-0.01-1.42 0.35-1.66 1.25c-1.2 4.67-1.46 9.36-0.84 14.03
	c-7.32-5.7-16.07-9.68-25.12-11.21c-1.23-0.61-3.1 0.32-2.59 2.01c0.02 0.08 0.06 0.15 0.08 0.23c0.03 0.16 0.07 0.31 0.16 0.45
	c3.25 10.08 9.47 18.23 17.66 23.68c-5.09 1.2-9.73 3.8-14.29 6.53c-0.69 0.41-0.9 1.05-0.82 1.66c-0.44 0.93-0.21 2.13 1.07 2.36
	c5.02 0.9 10.08 1.19 15.15 1.37c-3.41 1.96-6.73 4.2-9.97 6.5c-1.27 0.9-0.84 2.59 0.15 3.18c0.28 0.38 0.71 0.68 1.29 0.75
	c6.03 0.77 11.94 0.23 17.52-1.37c-4.14 3.42-7.75 7.42-10.78 11.93c-0.04 0.01-0.09 0.03-0.14 0.04c-2.01 0.62-1.38 3.53 0.43 3.51
	c0.62 0.2 1.32 0.09 1.84-0.48c6.96-2.2 13.8-4.8 20.39-7.95c-6.93 4.33-13 10-17.96 16.89c-0.96 1.33 0.33 2.59 1.63 2.56
	c0.28 0.07 0.59 0.08 0.94-0.06c5.38-2.1 12.12-4.25 18.53-7.1c-4.71 5.16-8.41 11.41-10.81 17.38c-0.3 0.73-0.06 1.31 0.38 1.68
	c0.28 0.35 0.72 0.58 1.34 0.52c6.56-0.61 11.82-3.56 16.89-7.39c-4.49 5.32-8.23 11.52-11.54 17.41c-1.07 1.91 1.64 3.6 2.89 2.05
	c0.13-0.03 0.26-0.03 0.4-0.08c5.6-2.41 11.24-4.97 16.47-8.05c-3.63 4.07-6.65 8.72-8.86 13.89c-0.46 1.08 0.14 2.08 0.95 2.51
	c0.38 0.32 0.89 0.49 1.53 0.3c6.29-1.88 12.4-4.54 17.74-8.12c-4.93 5.92-8.5 12.98-10.33 20.74c-0.44 1.85 1.82 2.79 2.92 1.82
	c3.98-1.72 8.04-3.99 11.83-6.72c-1.98 4.34-3.47 8.88-4.55 13.21c-0.16 0.65 0.04 1.17 0.38 1.56c0.4 0.88 1.39 1.49 2.46 0.84
	c10.94-6.72 19.89-16.07 23.12-28.23c6.55 15.39 10.82 31.81 12.55 48.79c-4.63 6.69-9.55 13.2-14.76 19.49
	c-0.17 0.21-0.28 0.43-0.35 0.65C87.82 284.42 40.15 230.37 40.15 165.38z M264.41 221.43c-1.11-5.5-4.45-10.36-9.82-12.9
	c-10.55-4.97-27.37 7.49-35.26-2.49c0.05-0.06 0.11-0.12 0.15-0.19c4.43-1.92 9.25-2.98 14.49-2.84c2.31 0.06 2.31-3.52 0-3.58
	c-4.14-0.11-8.04 0.49-11.73 1.61c2.53-4.05 5.67-7.55 10.61-9.15c5.73-1.86 12.96-0.81 18.57 1.13
	C264.45 197.53 268.55 209.79 264.41 221.43z M236.45 224.36c-4.62-2.66-9.47-4.24-14.31-4.85c12.12-6.18 27.97-5.26 33.49 9.19
	c2.14 5.59 3.5 10.96 7.03 15.51c-8.6-0.27-17.41-1.06-25.09-5.19c-6.72-3.61-9.97-9.86-15.71-14.44c-0.65-0.52-1.42-1.12-2.28-1.72
	c5.03 0.31 10.16 1.78 15.07 4.6C236.65 228.61 238.45 225.52 236.45 224.36z M215.98 207.57c2.84 3.92 6.85 5.7 11.47 5.95
	c-4.28 1.31-8.34 3.33-11.79 5.78c-0.93 0.05-1.86 0.14-2.78 0.26c-1.64-0.33-3.21-0.15-4.49 0.9c-3.67 0.99-7.16 2.56-10.35 4.7
	C202.75 218.02 208.75 211.63 215.98 207.57z M184.96 240.66c0 0.01 0 0.01-0.01 0.02c-4.93 10-10.53 19.73-16.76 29.12
	c-2.15-17.14-6.8-33.67-13.79-49.11c4.11-0.73 7.92-2.32 11.44-4.54c0.06 0.11 0.1 0.22 0.19 0.33c6.19 7.03 16.53 8.02 24.19 3.09
	c0.94 1.91 1.45 4.02 1.47 6.2c-2.05 4.97-4.27 9.88-6.66 14.73C185.01 240.56 184.98 240.61 184.96 240.66z M136.84 228.4
	c-4.47 4.85-10.17 8.82-15.8 11.68c3.96-12.16 12.48-21.9 24.01-27.56c-0.66 4.53-2.61 8.71-5.37 12.47
	C138.68 226.07 137.73 227.21 136.84 228.4z M80.6 158.34c-5.1-0.16-10.22-0.25-15.3-0.84c4.42-2.5 9.01-4.57 14.2-4.73
	c3.01 1.46 6.22 2.6 9.59 3.38c-2.57 0.6-5.07 1.46-7.52 2.53C81.31 158.49 81 158.35 80.6 158.34z M87.8 125.38
	c1.81 2.74 3.29 5.67 4.41 8.78c0.13 0.37 0.36 0.62 0.61 0.81c0.16 3.41 0.68 6.81 1.6 10.15c-1.72-2.36-3.67-4.55-5.78-6.59
	C87.47 134.14 87.19 129.78 87.8 125.38z M100.31 114.79c6.98 12.85 8.24 27.25 3.45 41.29c-0.16-0.04-0.32-0.06-0.48-0.09
	c-0.2-0.15-0.38-0.32-0.58-0.47c-0.03-0.06-0.03-0.13-0.07-0.19C95.1 142.7 94.33 128 100.31 114.79z M134.13 128.92
	c0.77 15.17-4.11 29.41-14.25 40.92c0-0.12 0.03-0.22 0-0.34C117.51 156.89 124.95 138.84 134.13 128.92z M145.54 136.09
	c0.46 16.15-5.1 31.14-16.09 43.07C130.04 163.17 135.5 148.5 145.54 136.09z M190.87 214.16c-1.53-1.79-3.38-3.32-5.59-4.42
	c-2.06-1.02-3.88 2.07-1.81 3.1c1.9 0.94 3.5 2.27 4.81 3.82c-6.15 4.12-14.52 2.94-19.5-2.51c4.87-3.69 9.1-8.49 12.69-13.58
	C188.93 200.48 193.61 207.55 190.87 214.16z M153.73 217.21c-0.01-0.03-0.02-0.05-0.03-0.08c6.41-12.4 16.86-21.73 29.87-26.59
	C177.11 201.95 167.02 215.06 153.73 217.21z M122.62 178.67c-2.57-0.04-5.06 0.29-7.44 0.98c1.38-1.56 2.56-3.27 3.46-5.14
	C119.97 175.89 121.33 177.25 122.62 178.67z M130.94 188.6c-4.3 0.33-8.19 1.55-11.71 3.47c2.73-2.65 5.22-5.54 7.47-8.64
	C128.14 185.14 129.58 186.84 130.94 188.6z M151.26 214.11c-0.36-0.72-0.7-1.45-1.08-2.17c1.22-0.7 2.44-1.42 3.66-2.15
	C152.92 211.19 152.07 212.63 151.26 214.11z M134.84 193.88c1.2 1.68 2.36 3.39 3.5 5.12c-3.35 1.05-6.56 2.38-9.57 4.04
	C131.16 200.34 133.23 197.32 134.84 193.88z M141.83 204.41c0.89 1.46 1.69 2.97 2.54 4.46c-2.69 1.24-5.24 2.69-7.63 4.34
	C138.81 210.59 140.52 207.65 141.83 204.41z M144.77 202.37c1.68-1.19 3.29-2.44 4.82-3.76c-1.17 2.16-2.19 4.4-3.11 6.71
	C145.91 204.34 145.36 203.34 144.77 202.37z M149.12 217.94c-0.74 0.35-1.45 0.74-2.15 1.15c0.43-1.11 0.79-2.24 1.08-3.39
	C148.42 216.44 148.76 217.2 149.12 217.94z M149.09 208.43c4.64-12.88 13.36-23.41 24.99-30.41c-1.58 6.89-4.09 13.48-9.02 18.78
	C160.54 201.65 154.81 205.13 149.09 208.43z M144.04 198.4c4.08-14.69 11.72-27.61 22.58-38.19
	C164.48 175.59 156.5 189.09 144.04 198.4z M140.89 196.37c-0.8-1.2-1.58-2.4-2.41-3.57c2.39-2.67 4.63-5.45 6.77-8.29
	C143.53 188.33 142.08 192.28 140.89 196.37z M134.04 186.81c-1.01-1.32-2.06-2.61-3.12-3.89c1.72-1.78 3.33-3.63 4.83-5.55
	C134.94 180.43 134.41 183.59 134.04 186.81z M125.97 177.04c-1.28-1.42-2.64-2.78-3.97-4.16c2.02-2.24 3.83-4.61 5.48-7.06
	C126.7 169.48 126.21 173.22 125.97 177.04z M116.03 166.92c-0.87-0.82-1.77-1.63-2.66-2.44c1.09-1.24 2.07-2.51 2.99-3.81
	C116.07 162.77 115.93 164.86 116.03 166.92z M119.66 117.45c3.57 15.57 2.26 31.6-8.55 44.17c-0.41-0.4-0.99-0.62-1.55-0.57
	c-0.07-0.06-0.15-0.12-0.23-0.18c0.08-0.22 0.12-0.47 0.1-0.76C108.44 144.81 111.91 130.46 119.66 117.45z M85.64 140.67
	c0.05 0.06 0.11 0.11 0.17 0.16c2.31 2.18 4.43 4.53 6.24 7.09c-1.87-1.01-3.52 1.93-1.65 3.16c1.1 0.73 2.14 1.53 3.22 2.28
	c-4.54-0.63-8.82-1.94-12.73-3.87c-0.12-0.09-0.25-0.17-0.41-0.22c-8.81-4.48-15.71-12.05-19.45-21.7
	C70.11 129.66 78.8 134.25 85.64 140.67z M98.94 158.94c-7.86 6.91-17.61 10.34-28.04 9.95C79.4 163.08 88.55 158.01 98.94 158.94z
	 M102.84 160.21c0.12 0.1 0.25 0.2 0.37 0.3c-0.31 0.06-0.63 0.15-0.94 0.23C102.45 160.56 102.65 160.39 102.84 160.21z
	 M107.1 164.08c0.13 0.1 0.26 0.14 0.4 0.21c-3.74 8.87-17.93 13.7-28.16 16.79c3.11-3.91 6.72-7.36 10.91-10.21
	C92.84 169.11 104.08 161.67 107.1 164.08z M110.41 166.6c1.35 1.21 2.69 2.42 4 3.67c-3.83 0.94-7.5 2.22-11.01 3.81
	C106.4 172.15 108.88 169.81 110.41 166.6z M114.9 173.83c-5.22 9.16-19.31 14.26-29.74 18.03
	C93.05 182.94 103.3 176.8 114.9 173.83z M123.19 182.23c-3.64 4.81-7.97 8.87-12.61 12.79c-5.26 4.45-10.58 9.05-17.3 10.65
	C98.75 194.06 109.62 181.54 123.19 182.23z M131.73 192.14c-5.67 12.5-17.97 19.15-30.19 24.57
	C108.53 204.92 117.54 193.02 131.73 192.14z M138.65 202.66c-4.6 11.84-15.4 19.04-27.27 23.18
	C117.17 214.8 126.77 206.59 138.65 202.66z M139.35 230.96c1.14-1.23 2.2-2.52 3.18-3.86c2.14-2.25 4.56-4.17 7.29-5.56
	c-1.89 11.39-9.28 20.21-18.62 26.76C132.98 242.4 135.62 236.17 139.35 230.96z M137.48 188.47c1.43-15.5 8.39-29.29 19.87-39.71
	C155.25 163.93 147.43 176.94 137.48 188.47z M165.95 295.99c-4.04-0.15-8.03-0.49-11.96-1c4.03-4.93 7.89-9.98 11.58-15.13
	C165.93 285.19 166.09 290.57 165.95 295.99z M170.88 296.12c-0.45 0-0.9-0.03-1.35-0.03c0.19-7.05-0.03-14.05-0.67-20.95
	c7.15-10.46 13.55-21.33 19.09-32.53c0.03-0.05 0.07-0.07 0.1-0.13c4.4-9.59 12.13-15.99 21.02-18.5c0.33 0 0.66-0.07 0.96-0.26
	c0.59-0.15 1.18-0.28 1.78-0.4c4.96 2.05 22.54 18.32 26.99 20.24c8.61 3.7 18.13 4.14 27.37 4.34c0.92 0.02 1.46-0.55 1.64-1.23
	c0.51-0.64 0.64-1.54-0.15-2.25c-9.05-8.23-6.96-23.8-18.66-29.85c-3.37-1.74-7.07-2.54-10.84-2.62c1.08-0.28 2.16-0.54 3.25-0.75
	c10.64-2.05 20.44 3.59 19.8 15.5c-0.05 0.92 0.5 1.45 1.17 1.64c0.74 0.8 2.17 1.01 2.87-0.22c7.84-13.71 5.38-30.56-9.99-37.42
	c-6.91-3.09-16.01-4.45-23.37-2.26c-7.45 2.22-11.46 8.12-14.93 14.63c-7.33 3.45-13.6 9.09-18.72 15.69
	c7.09-19.17 11.62-39.03 13.11-59.17c1.12 2.26 2.63 4.35 4.72 6.2c5.19 4.61 11.87 6.77 18.4 8.73c0.93 1.27 3.49 0.29 3.16-1.68
	c-1.27-7.5-2.83-15.56-8.66-20.98c-2.28-2.12-4.78-3.28-7.42-3.88c11.77-4.17 22.71-13 24.68-25.31c1.01-0.87 0.64-3.08-1.15-3.23
	c-14.7-1.23-26.91 6.11-33.34 18.16c-0.26-6.57-0.86-13.15-1.81-19.73c0.11-0.3 0.17-0.64 0.08-1.03
	c-3.37-14.01 4.86-19.39 9.41-30.64c5.22-12.92-1.97-28.48 17.01-33.45c0.15-0.04 0.24-0.12 0.36-0.18
	c38.74 22.71 64.83 64.77 64.83 112.83C301.61 237.47 242.97 296.12 170.88 296.12z" fill="rgba(91,76,99,1)" data-uid="o_fc2hacb8j_9"></path></svg></g><path text="Saksham" fill="#5b4c63" space="preserve" text-anchor="middle" offset="0.5" font-scale="contain" font-size="48" font-family="La Belle Aurore" transform="matrix(1.435109874355579, 0, 0, 1.435109874355579, 254.28071927543215, 417.4249954666671)" data-fl-textpath="" font-style="normal" font-weight="400" letter-spacing="-1" data-uid="o_fc2hacb8j_10" d="M-80.372-10.36L-80.372-10.36Q-80.372-11.11 -80.272-12.02Q-80.182-12.94 -79.852-13.69Q-79.522-14.44 -78.892-14.95Q-78.262-15.47 -77.182-15.47L-77.182-15.47Q-77.182-14.86 -77.302-14.34Q-77.412-13.83 -77.582-13.31Q-77.742-12.8 -77.862-12.21Q-77.972-11.63 -77.972-10.92L-77.972-10.92Q-77.972-9.14 -77.512-7.59Q-77.042-6.05 -76.082-4.9Q-75.122-3.75 -73.692-3.09Q-72.262-2.44 -70.292-2.44L-70.292-2.44Q-69.442-2.44 -68.222-2.81Q-67.012-3.19 -65.792-3.7Q-64.572-4.22 -63.542-4.73Q-62.512-5.25 -62.082-5.48L-62.082-5.48Q-61.052-6.05 -60.442-7.05Q-59.832-8.06 -59.512-9.26Q-59.182-10.45 -59.082-11.7Q-58.992-12.94 -58.992-13.92L-58.992-13.92Q-58.992-15.52 -59.302-17.04Q-59.602-18.56 -59.952-20.06Q-60.302-21.56 -60.612-23.06Q-60.912-24.56 -60.912-26.11L-60.912-26.11Q-60.402-27.56 -59.302-28.76Q-58.192-29.95 -56.762-30.82Q-55.332-31.69 -53.692-32.2Q-52.052-32.72 -50.512-32.81L-50.512-32.81Q-49.242-32.48 -48.582-31.99Q-47.932-31.5 -47.672-30.94Q-47.412-30.38 -47.552-29.86Q-47.692-29.34 -48.022-28.92L-48.022-28.92Q-48.542-30.05 -49.362-30.42Q-50.182-30.8 -51.192-30.66Q-52.192-30.52 -53.222-29.95Q-54.262-29.39 -55.192-28.69Q-56.132-27.98 -56.832-27.21Q-57.542-26.44 -57.872-25.88L-57.872-25.88Q-57.872-24.47 -57.562-23.13Q-57.262-21.8 -56.902-20.46Q-56.552-19.13 -56.252-17.79Q-55.942-16.45 -55.942-15.05L-55.942-15.05Q-55.942-11.67 -57.002-8.88Q-58.052-6.09 -60.052-4.1Q-62.042-2.11 -64.872-1.03Q-67.712 0.05 -71.222 0.05L-71.222 0.05Q-73.432 0.05 -75.142-0.84Q-76.852-1.73 -78.002-3.21Q-79.152-4.69 -79.762-6.56Q-80.372-8.44 -80.372-10.36ZM-53.152-3.05L-53.152-3.05Q-52.722-5.72 -51.552-7.97Q-50.382-10.22 -48.862-11.88Q-47.332-13.55 -45.552-14.63Q-43.772-15.7 -42.082-16.01Q-40.402-16.31 -38.972-15.84Q-37.542-15.38 -36.652-13.97L-36.652-13.97Q-36.652-12.89 -37.142-11.91Q-37.632-10.92 -38.222-9.94Q-38.802-8.95 -39.292-7.92Q-39.792-6.89 -39.792-5.72L-39.792-5.72Q-39.792-4.5 -39.252-3.77Q-38.712-3.05 -37.352-3.05L-37.352-3.05Q-36.222-3.05 -35.172-3.38Q-34.112-3.7 -33.042-3.7L-33.042-3.7Q-32.852-3.7 -32.402-3.68Q-31.962-3.66 -31.822-3.66L-31.822-3.66Q-32.382-2.86 -33.272-2.3Q-34.162-1.73 -35.152-1.34Q-36.132-0.94 -37.192-0.75Q-38.242-0.56 -39.132-0.56L-39.132-0.56Q-39.972-0.56 -40.632-0.94Q-41.292-1.31 -41.762-1.92Q-42.222-2.53 -42.482-3.3Q-42.742-4.08 -42.742-4.83L-42.742-4.83Q-43.442-4.03 -44.262-3.16Q-45.082-2.3 -46.002-1.59Q-46.912-0.89 -47.972-0.42Q-49.022 0.05 -50.152 0.05L-50.152 0.05Q-51.362 0.05 -52.262-0.87Q-53.152-1.78 -53.152-3.05ZM-50.052-4.5L-50.052-4.5Q-50.052-4.13 -50.032-3.66Q-50.012-3.19 -49.442-3.05L-49.442-3.05Q-48.272-3.33 -46.772-4.29Q-45.272-5.25 -43.962-6.54Q-42.652-7.83 -41.762-9.3Q-40.862-10.78 -40.862-12.14L-40.862-12.14Q-40.862-12.23 -40.892-12.45Q-40.912-12.66 -40.912-12.75L-40.912-12.75Q-42.512-12.75 -44.152-12.09Q-45.792-11.44 -47.102-10.29Q-48.412-9.14 -49.232-7.64Q-50.052-6.14 -50.052-4.5ZM-27.712-6.66L-27.712-6.66Q-28.272-5.91 -28.652-4.97Q-29.022-4.03 -29.492-3.19Q-29.962-2.34 -30.612-1.78Q-31.272-1.22 -32.352-1.22L-32.352-1.22Q-33.242-1.22 -33.572-1.52Q-33.902-1.83 -33.902-2.77L-33.902-2.77Q-33.902-3.89 -33.262-5.25Q-32.632-6.61 -31.742-7.9Q-30.852-9.19 -29.912-10.31Q-28.972-11.44 -28.362-12.14L-28.362-12.14L-19.692-30.89Q-19.362-31.69 -18.502-32.39Q-17.632-33.09 -16.692-33.09L-16.692-33.09L-16.692-31.55L-21.662-20.06L-21.662-18.94Q-20.862-18.94 -20.162-19.2Q-19.462-19.45 -18.762-19.78Q-18.052-20.11 -17.282-20.37Q-16.512-20.63 -15.572-20.63L-15.572-20.63Q-14.722-20.06 -14.682-19.24Q-14.632-18.42 -15.102-17.46Q-15.572-16.5 -16.392-15.52Q-17.212-14.53 -18.102-13.62Q-18.992-12.7 -19.812-12Q-20.632-11.3 -21.052-10.92L-21.052-10.92Q-21.762-10.36 -22.342-10.15Q-22.932-9.94 -23.352-9.75Q-23.772-9.56 -23.982-9.19Q-24.192-8.81 -24.192-7.92L-24.192-7.92Q-24.192-6.61 -23.492-5.79Q-22.792-4.97 -21.642-4.5Q-20.492-4.03 -19.062-3.87Q-17.632-3.7 -16.182-3.7Q-14.722-3.7 -13.412-3.82Q-12.102-3.94 -11.162-4.08L-11.162-4.08L-10.602-3.52Q-11.112-2.81 -12.172-2.18Q-13.222-1.55 -14.472-1.05Q-15.712-0.56 -16.932-0.26Q-18.152 0.05 -18.942 0.05L-18.942 0.05Q-20.442 0.05 -21.852-0.45Q-23.262-0.94 -24.432-1.83Q-25.602-2.72 -26.472-3.96Q-27.332-5.2 -27.712-6.66ZM-18.472-17.2L-18.472-17.2Q-18.902-17.2 -19.742-16.88Q-20.582-16.55 -21.432-16.03Q-22.272-15.52 -22.882-14.91Q-23.492-14.3 -23.492-13.69L-23.492-13.69L-23.492-13.36Q-23.162-13.5 -22.342-13.83Q-21.522-14.16 -20.652-14.65Q-19.792-15.14 -19.132-15.8Q-18.472-16.45 -18.472-17.2ZM-12.729-5.2L-12.729-5.2Q-12.729-6.09 -12.469-6.75Q-12.209-7.41 -11.129-7.41L-11.129-7.41Q-11.039-7.41 -10.689-7.38Q-10.339-7.36 -10.199-7.31L-10.199-7.31Q-10.239-5.11 -9.489-4.01Q-8.739-2.91 -6.679-2.91L-6.679-2.91Q-4.989-2.91 -3.349-3.42Q-1.709-3.94 -0.379-4.95Q 0.961-5.95  1.781-7.41Q 2.601-8.86  2.601-10.69L 2.601-10.69Q 2.601-11.81  1.831-12.28Q 1.051-12.75  0.121-13.03Q-0.819-13.31 -1.589-13.66Q-2.369-14.02 -2.369-14.91L-2.369-14.91Q-2.369-15.98 -1.059-16.97Q 0.261-17.95  2.041-18.73Q 3.821-19.5  5.581-19.95Q 7.341-20.39  8.271-20.39L 8.271-20.39Q 8.271-19.03  7.691-18.47Q 7.101-17.91  6.261-17.58Q 5.411-17.25  4.551-16.95Q 3.681-16.64  3.121-15.8L 3.121-15.8Q 3.871-15.19  4.361-14.7Q 4.851-14.2  5.131-13.64Q 5.411-13.08  5.511-12.4Q 5.601-11.72  5.601-10.78L 5.601-10.78Q 5.601-8.34  4.551-6.35Q 3.491-4.36  1.801-2.93Q 0.121-1.5 -2.039-0.73Q-4.199 0.05 -6.449 0.05L-6.449 0.05Q-7.659 0.05 -8.809-0.26Q-9.959-0.56 -10.829-1.22Q-11.699-1.88 -12.209-2.86Q-12.729-3.84 -12.729-5.2ZM 24.754 0.05L 24.754 0.05Q 23.584 0.23  22.624-0.35Q 21.664-0.94  21.104-1.9Q 20.544-2.86  20.444-4.01Q 20.354-5.16  20.914-6.09L 20.914-6.09Q 22.974-8.77  23.724-10.34Q 24.474-11.91  24.264-12.54Q 24.054-13.17  23.094-13.05Q 22.134-12.94  20.774-12.21Q 19.414-11.48  17.844-10.31Q 16.274-9.14  14.914-7.73Q 13.554-6.33  12.544-4.8Q 11.544-3.28  11.254-1.83L 11.254-1.83Q 10.794-1.55  10.464-1.38Q 10.134-1.22  9.714-1.22L 9.714-1.22Q 9.004-1.22  8.864-1.69Q 8.724-2.16  8.724-2.67L 8.724-2.67Q 8.724-3.84  9.454-5.09Q 10.184-6.33  11.144-7.43Q 12.104-8.53  12.994-9.45Q 13.884-10.36  14.254-10.92L 14.254-10.92Q 15.434-12.84  16.604-15.07Q 17.774-17.3  18.944-19.62Q 20.114-21.94  21.364-24.21Q 22.604-26.48  23.964-28.55L 23.964-28.55Q 24.194-28.92  24.364-29.06Q 24.524-29.2  24.854-29.2L 24.854-29.2Q 25.224-29.2  25.414-29.06Q 25.604-28.92  25.794-28.55L 25.794-28.55Q 25.794-28.36  25.714-27.94Q 25.644-27.52  25.574-27.02Q 25.504-26.53  25.394-26.11Q 25.274-25.69  25.224-25.55L 25.224-25.55Q 24.944-24.98  24.294-23.58Q 23.634-22.17  22.864-20.58Q 22.084-18.98  21.384-17.46Q 20.684-15.94  20.354-15.19L 20.354-15.19Q 21.054-15.66  21.614-15.91Q 22.184-16.17  22.714-16.29Q 23.254-16.41  23.844-16.43Q 24.434-16.45  25.134-16.45L 25.134-16.45Q 26.824-16.03  27.364-15.19Q 27.894-14.34  27.684-13.24Q 27.474-12.14  26.774-10.83Q 26.074-9.52  25.294-8.18Q 24.524-6.84  23.914-5.6Q 23.304-4.36  23.354-3.33L 23.354-3.33Q 23.354-2.91  23.544-2.72Q 23.724-2.53  24.004-2.44Q 24.294-2.34  24.614-2.34Q 24.944-2.34  25.224-2.34L 25.224-2.34Q 26.214-2.34  27.124-2.65Q 28.044-2.95  28.934-3.33Q 29.824-3.7  30.734-4.01Q 31.644-4.31  32.634-4.31L 32.634-4.31Q 32.634-3.42  31.744-2.63Q 30.854-1.83  29.614-1.24Q 28.364-0.66  27.004-0.3Q 25.644 0.05  24.754 0.05ZM 30.176-3.05L 30.176-3.05Q 30.606-5.72  31.776-7.97Q 32.946-10.22  34.466-11.88Q 35.996-13.55  37.776-14.63Q 39.556-15.7  41.246-16.01Q 42.926-16.31  44.356-15.84Q 45.786-15.38  46.676-13.97L 46.676-13.97Q 46.676-12.89  46.186-11.91Q 45.696-10.92  45.106-9.94Q 44.526-8.95  44.036-7.92Q 43.536-6.89  43.536-5.72L 43.536-5.72Q 43.536-4.5  44.076-3.77Q 44.616-3.05  45.976-3.05L 45.976-3.05Q 47.106-3.05  48.156-3.38Q 49.216-3.7  50.286-3.7L 50.286-3.7Q 50.476-3.7  50.926-3.68Q 51.366-3.66  51.506-3.66L 51.506-3.66Q 50.946-2.86  50.056-2.3Q 49.166-1.73  48.176-1.34Q 47.196-0.94  46.136-0.75Q 45.086-0.56  44.196-0.56L 44.196-0.56Q 43.356-0.56  42.696-0.94Q 42.036-1.31  41.566-1.92Q 41.106-2.53  40.846-3.3Q 40.586-4.08  40.586-4.83L 40.586-4.83Q 39.886-4.03  39.066-3.16Q 38.246-2.3  37.326-1.59Q 36.416-0.89  35.356-0.42Q 34.306 0.05  33.176 0.05L 33.176 0.05Q 31.966 0.05  31.066-0.87Q 30.176-1.78  30.176-3.05ZM 33.276-4.5L 33.276-4.5Q 33.276-4.13  33.296-3.66Q 33.316-3.19  33.886-3.05L 33.886-3.05Q 35.056-3.33  36.556-4.29Q 38.056-5.25  39.366-6.54Q 40.676-7.83  41.566-9.3Q 42.466-10.78  42.466-12.14L 42.466-12.14Q 42.466-12.23  42.436-12.45Q 42.416-12.66  42.416-12.75L 42.416-12.75Q 40.816-12.75  39.176-12.09Q 37.536-11.44  36.226-10.29Q 34.916-9.14  34.096-7.64Q 33.276-6.14  33.276-4.5ZM 71.696 0.05L 71.696 0.05Q 70.806 0.05  70.076-0.28Q 69.356-0.61  68.886-1.22Q 68.416-1.83  68.226-2.6Q 68.036-3.38  68.276-4.27L 68.276-4.27Q 68.276-5.77  68.816-7.05Q 69.356-8.34  70.036-9.54Q 70.716-10.73  71.246-11.93Q 71.786-13.13  71.786-14.48L 71.786-14.48Q 70.756-14.48  69.586-13.83Q 68.416-13.17  67.216-12.09Q 66.026-11.02  64.876-9.68Q 63.726-8.34  62.716-7.01Q 61.716-5.67  60.986-4.45Q 60.256-3.23  59.886-2.44L 59.886-2.44Q 59.786-2.39  59.416-2.37Q 59.036-2.34  58.946-2.34L 58.946-2.34Q 58.196-1.97  58.036-2.37Q 57.866-2.77  58.036-3.61Q 58.196-4.45  58.566-5.51Q 58.946-6.56  59.296-7.52Q 59.646-8.48  59.836-9.12Q 60.026-9.75  59.886-9.75L 59.886-9.75Q 60.026-9.94  60.216-10.36Q 60.396-10.78  60.586-11.25Q 60.776-11.72  60.916-12.12Q 61.056-12.52  61.056-12.75L 61.056-12.75Q 61.056-13.17  60.746-13.29Q 60.446-13.41  60.166-13.41L 60.166-13.41Q 59.316-13.88  58.356-12.87Q 57.396-11.86  56.296-10.01Q 55.196-8.16  53.906-5.79Q 52.616-3.42  51.066-1.22L 51.066-1.22Q 49.996-1.22  49.426-1.5Q 48.866-1.78  48.866-2.91L 48.866-2.91Q 49.246-3.42  49.996-4.85Q 50.746-6.28  51.676-8.02Q 52.616-9.75  53.676-11.53Q 54.726-13.31  55.686-14.55Q 56.646-15.8  57.426-16.24Q 58.196-16.69  58.666-15.8L 58.666-15.8Q 59.466-16.31  60.426-16.69Q 61.386-17.06  62.366-17.06L 62.366-17.06Q 63.026-17.06  63.466-16.66Q 63.916-16.27  64.176-15.68Q 64.426-15.09  64.566-14.46Q 64.716-13.83  64.716-13.36L 64.716-13.36Q 65.226-13.69  66.426-14.51Q 67.616-15.33  68.996-16.17Q 70.386-17.02  71.716-17.65Q 73.056-18.28  73.896-18.28L 73.896-18.28Q 74.646-18.28  75.186-17.74Q 75.726-17.2  75.726-16.41L 75.726-16.41Q 74.036-12.28  73.076-9.8Q 72.116-7.31  71.816-5.93Q 71.506-4.55  71.816-3.96Q 72.116-3.38  72.916-3.05L 72.916-3.05Q 74.176-3.05  75.356-3.47Q 76.526-3.89  77.676-4.41Q 78.816-4.92  79.996-5.34Q 81.166-5.77  82.476-5.77L 82.476-5.77Q 82.476-5.25  82.216-4.8Q 81.966-4.36  81.446-4.13L 81.446-4.13Q 81.066-3.89  80.106-3.4Q 79.146-2.91  78.026-2.37Q 76.896-1.83  75.886-1.31Q 74.886-0.8  74.466-0.61L 74.466-0.61Q 73.526-0.19  73.036-0.07Q 72.536 0.05  71.696 0.05Z" style=""></path></svg>